# xmcd
# Track frame offsets:
# 150
# 11281
# 29230
# 44857
# 61446
# 74685
# 94510
# 112606
# 126940
# 148893
# 169265
# 186018
# 205295
# 209686
#
# Disc length: 3071 seconds
# Revision: 0
# Processed by: cddbd v1.4PL0 Copyright (c) Steve Scherf et al.
# Submitted via: VisiTrax 2.9.5.181 - For more info visit www.synapsa.com
#
DISCID=db0bfd0e
DTITLE=Garth Brooks - Ropin' The Wind
DYEAR=1900
DGENRE=Country
TTITLE0=Against The Grain
TTITLE1=Rodeo
TTITLE2=What She's Doing Now
TTITLE3=Burning Bridges
TTITLE4=Burning Bridges
TTITLE5=Shameless
TTITLE6=Cold Shoulder
TTITLE7=We Bury The Hatchet
TTITLE8=In Lonesome Dove
TTITLE9=The River
TTITLE10=Alabama Clay
TTITLE11=Everytime That It Rains
TTITLE12=Nobody Gets Off In This Town
TTITLE13=Cowboy Bill
EXTD=
EXTT0=
EXTT1=
EXTT2=
EXTT3=
EXTT4=
EXTT5=
EXTT6=
EXTT7=
EXTT8=
EXTT9=
EXTT10=
EXTT11=
EXTT12=
EXTT13=
PLAYORDER=
